<svg width="72" height="72" viewBox="0 0 72 72" fill="none" xmlns="http://www.w3.org/2000/svg">
<path d="M24.4916 4.09075C25.8158 3.59854 26.8751 5.21253 26.1537 6.42767L25.7943 7.05364C24.0378 10.2166 22.9408 13.8106 22.7005 17.662C21.8516 31.2802 32.0272 43.0373 45.5414 44.2245L46.1878 44.2734C54.0633 44.7644 61.3152 41.567 66.2611 36.1699C67.1914 35.1554 68.9942 35.6953 68.9085 37.0693L68.8441 37.9189C67.2832 55.6801 51.8312 69.0547 33.933 67.9384L33.0834 67.874C15.6041 66.3381 2.37502 51.348 3.0228 33.8134L3.06382 32.9618C3.90109 19.5409 12.6535 8.49838 24.4916 4.09075ZM20.5062 10.08C13.0075 14.7434 7.71936 22.7073 6.78257 32.0761L6.69175 33.1884C5.6829 49.3676 17.9805 63.3013 34.1595 64.3105C48.3222 65.1937 60.7634 55.8801 64.3216 42.6923C59.1613 46.3415 52.7648 48.3256 45.9613 47.9013C30.1233 46.9134 18.0851 33.2732 19.0726 17.4355C19.2324 14.8732 19.726 12.4081 20.5062 10.08ZM44.7005 19.2392C45.4485 19.2394 46.1195 19.6979 46.3919 20.3945C46.6644 21.0914 46.4818 21.885 45.932 22.3925L39.8177 28.0361H44.7005L44.8861 28.0439C45.8025 28.1369 46.5169 28.9125 46.5169 29.8534C46.5166 30.794 45.8022 31.567 44.8861 31.6601L44.7005 31.6699H35.1703C34.4222 31.6697 33.7503 31.2112 33.4779 30.5146C33.2055 29.8177 33.389 29.024 33.9388 28.5165L40.0521 22.874H35.1703C34.1669 22.8737 33.354 22.0599 33.3539 21.0566C33.3539 20.0531 34.1668 19.2394 35.1703 19.2392H44.7005ZM67.4232 4.57903C68.1752 4.57903 68.8496 5.04219 69.1195 5.74407C69.3889 6.44626 69.1987 7.24263 68.64 7.74603L57.4974 17.7743H67.4232L67.6087 17.7822C68.5251 17.8751 69.2403 18.6499 69.2406 19.5908C69.2403 20.5316 68.5251 21.3054 67.6087 21.3984L67.4232 21.4081H52.763C52.0106 21.4081 51.3363 20.9436 51.0667 20.2411C50.7974 19.5387 50.988 18.7424 51.5472 18.2392L62.6888 8.2138H52.763C51.7595 8.2138 50.9458 7.39992 50.9457 6.39642C50.9457 5.39276 51.7594 4.57903 52.763 4.57903H67.4232Z" fill="#151515"/>
</svg>