<svg width="73" height="72" viewBox="0 0 73 72" fill="none" xmlns="http://www.w3.org/2000/svg">
<path d="M37.6979 27.9872C46.8256 28.3524 54.0841 32.3666 59.0162 36.2225C61.4875 38.1546 63.3978 40.0636 64.693 41.494C65.3412 42.2099 65.8374 42.809 66.1754 43.2333C66.3443 43.4453 66.4739 43.6147 66.5631 43.7333C66.6074 43.7922 66.6423 43.8387 66.6666 43.8719C66.6786 43.8882 66.6879 43.9022 66.695 43.912C66.6984 43.9168 66.7025 43.9206 66.7047 43.9237C66.7058 43.9252 66.7069 43.9265 66.7077 43.9276L66.7086 43.9296C66.7042 43.9336 66.6244 43.9911 65.3024 44.9354C66.5863 45.9137 66.672 45.9803 66.6774 45.9852L66.6725 45.9911C66.6702 45.9941 66.6672 45.9982 66.6637 46.0028C66.6563 46.0124 66.6462 46.0265 66.6334 46.0428C66.6078 46.0757 66.5718 46.1221 66.525 46.1805C66.431 46.2981 66.2935 46.4661 66.1159 46.6766C65.7607 47.0977 65.2405 47.6911 64.5661 48.3993C63.2179 49.8148 61.2439 51.6985 58.7301 53.5839C53.7197 57.3416 46.4416 61.1942 37.6286 61.1942C28.8085 61.1942 21.6971 57.3357 16.8493 53.5653C14.4191 51.6752 12.53 49.7865 11.2457 48.3671C10.6028 47.6564 10.1087 47.0594 9.77211 46.6366C9.60402 46.4254 9.47338 46.2578 9.38441 46.1395C9.34022 46.0808 9.30617 46.034 9.28187 46.0008C9.26974 45.9843 9.26064 45.9696 9.25355 45.9598C9.25005 45.955 9.24603 45.9512 9.24379 45.9481C9.24288 45.9468 9.24253 45.9452 9.24183 45.9442L9.23988 45.9423C9.24091 45.9406 9.28583 45.9078 10.6471 44.9354C9.2252 44.0699 9.17115 44.0379 9.16957 44.036L9.17152 44.0331C9.17224 44.0319 9.17353 44.0307 9.17445 44.0292C9.17658 44.0257 9.17897 44.0208 9.18226 44.0155C9.18885 44.0048 9.19746 43.9904 9.20863 43.9725C9.2315 43.936 9.26451 43.8839 9.30629 43.8192C9.39019 43.6893 9.51317 43.5038 9.6725 43.2723C9.99122 42.8094 10.4605 42.1583 11.0768 41.3837C12.308 39.8362 14.1368 37.7813 16.5328 35.7469C21.3175 31.6847 28.4728 27.6182 37.6979 27.9872ZM31.2252 31.994C26.1115 33.1084 21.9319 35.7001 18.7702 38.3846C16.5833 40.2414 14.9101 42.1227 13.7848 43.537C13.3783 44.0479 13.0456 44.4982 12.7868 44.8602C13.0566 45.1872 13.3979 45.5891 13.8102 46.0448C14.9905 47.3493 16.734 49.0942 18.9733 50.8358C23.4652 54.3294 29.845 57.7352 37.6286 57.7352C45.4196 57.7352 51.9786 54.3227 56.6539 50.8163C58.9828 49.0697 60.814 47.3211 62.0602 46.0126C62.4599 45.5929 62.7964 45.2176 63.0709 44.9051C62.8141 44.597 62.5004 44.227 62.1276 43.8153C60.9366 42.5001 59.1708 40.7342 56.8864 38.9481C54.3158 36.9384 51.1158 34.9241 47.359 33.4852C48.6409 35.3689 49.3903 37.6443 49.3903 40.0946C49.3899 46.5897 44.1246 51.8551 37.6295 51.8553C31.1343 51.8552 25.8682 46.5897 25.8678 40.0946C25.8678 39.7297 25.8851 39.368 25.9176 39.0116C26.6918 39.6846 27.7019 40.0935 28.8082 40.0936C31.2439 40.0936 33.2191 38.119 33.2194 35.6835C33.2194 34.1399 32.4261 32.7819 31.2252 31.994ZM67.4518 44.9696L66.6774 45.9842L65.3024 44.9354L66.7106 43.9305L67.4518 44.9696ZM10.6471 44.9354L9.2389 45.9413L8.57582 45.0126L9.16957 44.037L10.6471 44.9354ZM68.9225 23.6512C69.5979 22.9758 70.6933 22.9758 71.3688 23.6512C72.0439 24.3266 72.0437 25.4211 71.3688 26.0966L64.4498 33.0155C63.7744 33.6907 62.6799 33.6907 62.0045 33.0155C61.3291 32.34 61.3291 31.2447 62.0045 30.5692L68.9225 23.6512ZM2.56605 22.9022C3.22874 22.3002 4.23138 22.3087 4.88344 22.8944L5.00844 23.0184L11.9274 30.6288L12.0387 30.7655C12.5601 31.4704 12.4737 32.4696 11.8112 33.0721C11.1485 33.6746 10.146 33.6658 9.49379 33.08L9.36781 32.9559L2.44984 25.3456C1.8073 24.6388 1.8593 23.5448 2.56605 22.9022ZM15.4508 14.3124C16.2622 13.934 17.2176 14.2394 17.6666 14.9921L17.7496 15.1493L22.5924 25.5272L22.6588 25.6903C22.9475 26.5181 22.5671 27.4463 21.7555 27.8251C20.8901 28.2284 19.8616 27.8543 19.4577 26.9891L14.6149 16.6112C14.2112 15.7457 14.5854 14.7163 15.4508 14.3124ZM56.4557 15.0077C56.8975 14.2503 57.8504 13.9346 58.6657 14.3055C59.5346 14.7013 59.9183 15.7274 59.5231 16.5966L55.1159 26.2821C54.7203 27.1515 53.6943 27.536 52.8248 27.1405C51.9555 26.7448 51.5719 25.7189 51.9674 24.8495L56.3737 15.1639L56.4557 15.0077ZM44.0709 10.0135C45.0184 10.1324 45.6904 10.9966 45.5719 11.9442L44.1881 23.0135C44.0695 23.9611 43.205 24.6328 42.2575 24.5145C41.3098 24.3959 40.6371 23.5315 40.7555 22.5839L42.1393 11.5145C42.2579 10.5668 43.1232 9.89508 44.0709 10.0135ZM29.8043 10.0135C30.6926 9.90264 31.5074 10.4857 31.7037 11.3397L31.735 11.5145L33.1188 22.5839C33.2372 23.5314 32.5652 24.3957 31.6178 24.5145C30.7293 24.6256 29.9136 24.0416 29.7174 23.1874L29.6862 23.0135L28.3024 11.9442L28.2897 11.7675C28.2695 10.8912 28.9159 10.1248 29.8043 10.0135Z" fill="#151515"/>
</svg>