<svg width="73" height="72" viewBox="0 0 73 72" fill="none" xmlns="http://www.w3.org/2000/svg">
<path d="M12.5009 30.7726C16.8935 30.4065 19.9716 30.7592 22.3818 31.5626C24.7975 32.3679 26.411 33.5885 27.8232 34.6476C28.6358 35.2571 29.8868 36.4654 31.2011 37.7159C32.5711 39.0194 34.1213 40.4813 35.6591 41.7628C37.1986 43.0457 38.7345 44.1552 40.0361 45.1202C40.6745 45.5936 41.275 46.0452 41.7646 46.4532C42.2179 46.831 42.726 47.2907 43.0566 47.7862C43.1292 47.8952 43.1962 48.0084 43.2636 48.1192C46.3297 46.7231 50.6324 44.8394 54.6679 43.2423C56.9144 42.3532 59.1005 41.543 60.9531 40.9522C62.7234 40.3877 64.4279 39.9425 65.5888 39.9425C67.9393 39.9426 69.7481 40.5301 70.7626 42.0519C71.6457 43.3768 71.5888 45.0361 71.5888 45.9425C71.5886 47.2394 70.7534 48.2587 70.0136 48.9747C69.2081 49.7541 68.0809 50.5776 66.7441 51.4688C64.1102 53.2248 60.0801 55.6144 55.248 58.7208C45.323 65.1011 40.7184 66.7657 35.9413 66.7657C33.4371 66.7657 30.3331 65.7545 27.6074 64.4825C24.8617 63.2012 22.1889 61.5083 20.5761 59.8956C19.3 58.6195 17.4892 57.294 15.6318 56.1964C13.7585 55.0895 11.984 54.3012 10.8075 54.0069C8.69039 53.4777 6.85696 53.3536 6.29387 53.3536C5.45823 53.3535 4.73692 52.7674 4.56633 51.9493L1.03704 35.0079C0.915698 34.4254 1.09677 33.8212 1.51751 33.4005C1.88898 33.0292 2.40965 32.7652 2.87005 32.5714C3.39026 32.3525 4.06289 32.1302 4.90423 31.9151C6.58975 31.4844 9.04517 31.0605 12.5009 30.7726ZM21.2656 34.9112C19.4405 34.3029 16.8705 33.9494 12.7929 34.2892C9.47297 34.5659 7.22202 34.9651 5.77825 35.3341C5.37504 35.4371 5.04152 35.5375 4.77044 35.628L7.74602 49.9073C8.78378 50.0069 10.1693 50.2097 11.663 50.5831C13.3099 50.9949 15.4183 51.9716 17.4267 53.1583C19.4515 54.3548 21.5238 55.8531 23.0712 57.4005C24.2819 58.6112 26.5504 60.0951 29.0986 61.2843C31.6668 62.4828 34.2104 63.2364 35.9413 63.2364C39.6347 63.2364 43.5006 62.0762 53.3398 55.7511C58.3898 52.5046 62.1259 50.3058 64.7861 48.5323C66.0956 47.6593 66.9974 46.9825 67.5595 46.4386C67.9071 46.1022 68.0226 45.912 68.0566 45.8507C68.0537 44.7075 67.9971 44.2654 67.8261 44.0089C67.7817 43.9423 67.4724 43.4719 65.5888 43.4718C65.0556 43.4718 63.8527 43.7312 62.0263 44.3136C60.2821 44.8698 58.1787 45.6481 55.9667 46.5235C51.8524 48.1519 47.437 50.0897 44.3954 51.4806C44.4992 52.9854 44.0385 54.4585 42.8359 55.6612C41.8449 56.652 40.5291 56.9564 39.5419 57.0362C38.525 57.1184 37.5554 56.9885 36.9257 56.8312C36.7194 56.7796 36.5224 56.6915 36.3476 56.5704L27.1718 50.2169L27.0292 50.1065C26.349 49.5257 26.2064 48.5131 26.7265 47.7618C27.2466 47.0109 28.2443 46.7878 29.0273 47.2198L29.1816 47.3155L38.0634 53.464C38.3858 53.5172 38.8227 53.5549 39.2587 53.5196C39.8708 53.47 40.2024 53.3034 40.3407 53.1651C40.9583 52.5474 41.2413 51.4262 40.12 49.7442C40.115 49.7376 40.0742 49.6851 39.9687 49.5802C39.8571 49.4693 39.7041 49.3321 39.5038 49.1651C39.1001 48.8287 38.5751 48.4302 37.9345 47.9552C36.6774 47.0231 35.0373 45.8378 33.4003 44.4737C31.7621 43.1086 30.1347 41.5716 28.7695 40.2726C27.3487 38.9207 26.3049 37.921 25.706 37.4718C24.295 36.4135 23.0843 35.5175 21.2656 34.9112ZM44.8945 5.01768C52.1901 5.29431 57.9989 8.33479 61.954 11.2647C63.9349 12.7322 65.4673 14.1838 66.5068 15.2716C67.0265 15.8155 67.4246 16.2708 67.6962 16.5938C67.832 16.7554 67.9368 16.8851 68.0087 16.9757C68.0443 17.0204 68.072 17.0557 68.0917 17.0812C68.1013 17.0935 68.1094 17.1039 68.1152 17.1114C68.1181 17.1152 68.1221 17.1187 68.124 17.1212L68.1249 17.1241L68.1259 17.1251C68.1263 17.1256 68.1269 17.1271 66.9999 17.9767L68.0986 18.8624V18.8644C68.0979 18.8651 68.0965 18.8663 68.0956 18.8673C68.0938 18.8696 68.0916 18.8726 68.0888 18.8761C68.0829 18.8834 68.0745 18.8931 68.0644 18.9054C68.0436 18.9306 68.0134 18.9669 67.9755 19.0118C67.8998 19.1015 67.7899 19.2297 67.6474 19.3897C67.362 19.7103 66.9443 20.162 66.4032 20.7003C65.3216 21.7765 63.7383 23.208 61.7236 24.6397C57.7059 27.4948 51.883 30.4121 44.8407 30.4122C37.7931 30.4122 32.1028 27.4903 28.2148 24.6251C26.2666 23.1894 24.7514 21.7534 23.7206 20.6739C23.2051 20.1341 22.8085 19.6815 22.538 19.3595C22.4027 19.1984 22.2973 19.069 22.2255 18.9786C22.1899 18.9338 22.1632 18.8976 22.1435 18.8722C22.1336 18.8594 22.1239 18.8495 22.1181 18.8419C22.1153 18.8382 22.1131 18.8345 22.1113 18.8321C22.1106 18.8309 22.1109 18.8291 22.1103 18.8282H22.1083C22.1083 18.8274 22.1271 18.8121 23.2353 17.9767C22.0478 17.2138 22.0474 17.2126 22.0478 17.212L22.0497 17.211L22.0507 17.2081C22.0525 17.2054 22.0549 17.2014 22.0575 17.1974C22.0629 17.1891 22.0709 17.1779 22.08 17.1642C22.0986 17.1361 22.1244 17.0955 22.1581 17.046C22.2259 16.9466 22.3249 16.8054 22.4531 16.629C22.7095 16.2761 23.0879 15.7811 23.5829 15.1915C24.5717 14.0139 26.0384 12.4522 27.9599 10.9063C31.7994 7.81743 37.5242 4.73833 44.8945 5.01768ZM37.83 8.73545C34.5724 9.72441 31.8582 11.3922 29.7284 13.1056C27.98 14.5123 26.6422 15.9373 25.7441 17.0069C25.4563 17.3497 25.2154 17.6558 25.0204 17.9112C25.2233 18.1419 25.4699 18.4182 25.7626 18.7247C26.7052 19.7119 28.099 21.032 29.8896 22.3517C31.9197 23.8478 34.4369 25.326 37.37 26.3282C34.7699 24.2565 33.1171 21.1637 33.1171 17.7062C33.1172 14.0489 34.966 10.7995 37.83 8.73545ZM45.1171 9.23545C39.8857 9.23567 35.9414 13.187 35.9413 17.7062C35.9413 22.2254 39.8856 26.1766 45.1171 26.1769C50.3488 26.1769 54.2939 22.2255 54.2939 17.7062C54.2938 13.1869 50.3488 9.23545 45.1171 9.23545ZM53.6669 9.7833C55.8001 11.822 57.1171 14.6188 57.1171 17.7062C57.1171 20.9977 55.6204 23.9592 53.2333 26.0235C55.8687 25.0365 58.1777 23.6961 60.0888 22.338C61.9517 21.0141 63.4163 19.689 64.412 18.6983C64.6916 18.4202 64.9317 18.1671 65.1347 17.9503C64.9461 17.7381 64.7231 17.4921 64.4648 17.2218C63.5134 16.2263 62.1011 14.8883 60.2734 13.5343C58.4547 12.187 56.2393 10.834 53.6669 9.7833ZM45.1181 12.0597C48.2369 12.0597 50.7656 14.5884 50.7656 17.7071C50.7654 20.8257 48.2367 23.3536 45.1181 23.3536C41.9994 23.3536 39.4708 20.8257 39.4706 17.7071C39.4706 14.5883 41.9993 12.0597 45.1181 12.0597ZM45.1181 14.8829C43.5587 14.8829 42.2949 16.1477 42.2949 17.7071C42.295 19.2664 43.5588 20.5304 45.1181 20.5304C46.6773 20.5303 47.9411 19.2663 47.9413 17.7071C47.9413 16.1478 46.6775 14.8829 45.1181 14.8829ZM68.789 18.005L68.1005 18.8614L66.9999 17.9767L68.1279 17.1271L68.789 18.005ZM23.2353 17.9767L22.1074 18.8272L21.5156 18.0411L22.0468 17.214L23.2353 17.9767Z" fill="#151515"/>
</svg>