<svg width="73" height="72" viewBox="0 0 73 72" fill="none" xmlns="http://www.w3.org/2000/svg">
<path d="M18.7744 67.3696C19.1682 66.9759 19.8064 66.9758 20.2002 67.3696C20.5937 67.7633 20.5938 68.4016 20.2002 68.7954L18.8555 70.1401C18.4617 70.5336 17.8235 70.5336 17.4297 70.1401C17.0359 69.7463 17.0361 69.1081 17.4297 68.7143L18.7744 67.3696ZM21.4639 67.3696C21.8577 66.9758 22.4968 66.9758 22.8906 67.3696L24.2344 68.7143C24.628 69.1081 24.6281 69.7463 24.2344 70.1401C23.8406 70.5334 23.2023 70.5336 22.8086 70.1401L21.4639 68.7954C21.0705 68.4017 21.0705 67.7633 21.4639 67.3696ZM17.4297 63.3354C17.8235 62.9416 18.4617 62.9416 18.8555 63.3354L20.2002 64.6791C20.5938 65.073 20.5939 65.7121 20.2002 66.1059C19.8065 66.4992 19.1681 66.4992 18.7744 66.1059L17.4297 64.7612C17.036 64.3675 17.0363 63.7292 17.4297 63.3354ZM22.8086 63.3354C23.2024 62.9416 23.8406 62.9416 24.2344 63.3354C24.6279 63.7292 24.6281 64.3675 24.2344 64.7612L22.8896 66.1059C22.4959 66.4991 21.8575 66.4993 21.4639 66.1059C21.0701 65.7121 21.0702 65.073 21.4639 64.6791L22.8086 63.3354ZM9.24902 49.4985C9.80571 49.4988 10.2568 49.9505 10.2568 50.5073V50.5414C10.2572 50.5672 10.2584 50.6073 10.2598 50.6586C10.2625 50.7634 10.2679 50.9185 10.2793 51.1088C10.3022 51.4919 10.3482 52.0158 10.4385 52.5795C10.5293 53.1468 10.6619 53.7327 10.8506 54.2495C11.0432 54.7769 11.2701 55.1645 11.5088 55.3998C12.1144 55.9966 13.0956 56.448 14.0244 56.7534C14.4722 56.9005 14.8771 57.0033 15.1689 57.0698C15.3139 57.1028 15.4299 57.127 15.5078 57.142C15.5466 57.1495 15.5771 57.1544 15.5957 57.1577C15.6045 57.1592 15.6115 57.1609 15.6152 57.1616H15.6182L15.7939 57.2075C16.1885 57.3485 16.4627 57.7249 16.4629 58.1567C16.4628 58.5885 16.1885 58.9648 15.7939 59.1059L15.6182 59.1518H15.6152C15.6115 59.1525 15.6045 59.1541 15.5957 59.1557C15.5771 59.159 15.5467 59.1638 15.5078 59.1713C15.4299 59.1864 15.314 59.2106 15.1689 59.2436C14.877 59.31 14.4723 59.4147 14.0244 59.562C13.0952 59.8674 12.1144 60.3184 11.5088 60.9155C10.9708 61.4461 10.6238 62.4469 10.4355 63.4985C10.3468 63.9948 10.3017 64.4515 10.2793 64.7836C10.2681 64.9487 10.2625 65.0819 10.2598 65.1713C10.2584 65.2156 10.2571 65.2495 10.2568 65.2709V65.2973L10.252 65.4008C10.1999 65.9087 9.77058 66.3049 9.24902 66.3051C8.72724 66.3051 8.2972 65.9089 8.24512 65.4008L8.24023 65.2973V65.2709C8.23993 65.2495 8.23864 65.2156 8.2373 65.1713C8.23461 65.0819 8.22892 64.9487 8.21777 64.7836C8.19532 64.4515 8.15032 63.9949 8.06152 63.4985C7.87336 62.4471 7.52703 61.4462 6.98926 60.9155C6.72777 60.6576 6.30544 60.3978 5.75195 60.1577C5.20988 59.9225 4.60088 59.7299 4.01758 59.5786C3.43704 59.4279 2.89876 59.3227 2.50586 59.2543C2.31029 59.2203 2.15192 59.1959 2.04395 59.1801C1.99026 59.1723 1.94888 59.1662 1.92188 59.1625C1.90847 59.1607 1.89772 59.1594 1.8916 59.1586C1.88882 59.1583 1.88588 59.1578 1.88477 59.1577C1.37977 59.0951 1.00016 58.6656 1 58.1567C1.00021 57.6479 1.37983 57.2192 1.88477 57.1567C1.88585 57.1565 1.88875 57.1551 1.8916 57.1547C1.89771 57.1539 1.90844 57.1526 1.92188 57.1508C1.94885 57.1472 1.99034 57.142 2.04395 57.1342C2.15191 57.1185 2.31035 57.094 2.50586 57.06C2.8988 56.9916 3.43696 56.8855 4.01758 56.7348C4.60097 56.5834 5.2098 56.3909 5.75195 56.1557C6.30522 55.9156 6.72772 55.6576 6.98926 55.3998C7.22793 55.1645 7.45391 54.7768 7.64648 54.2495C7.83513 53.7326 7.96871 53.1468 8.05957 52.5795C8.14983 52.0158 8.19491 51.4919 8.21777 51.1088C8.22912 50.9185 8.23453 50.7634 8.2373 50.6586C8.23866 50.6073 8.2399 50.5672 8.24023 50.5414V50.5073C8.24023 49.9503 8.6921 49.4985 9.24902 49.4985ZM9.24707 55.6264C9.03113 56.0637 8.75842 56.486 8.40527 56.8344C7.89128 57.3412 7.21383 57.7206 6.55566 58.0063C6.43248 58.0597 6.30527 58.1078 6.17969 58.1567C6.3054 58.2056 6.43237 58.2545 6.55566 58.308C7.21383 58.5937 7.89127 58.9721 8.40527 59.4789C8.74894 59.818 9.02399 60.2217 9.24707 60.6489C9.4703 60.2212 9.74774 59.8183 10.0918 59.4789C10.6649 58.9138 11.3857 58.4829 12.0889 58.1567C11.3857 57.8305 10.6648 57.3995 10.0918 56.8344C9.73833 56.4857 9.46311 56.0641 9.24707 55.6264ZM36.3506 17.0356C47.683 17.4013 55.9484 21.2464 61.3887 25.0268C64.1041 26.9138 66.1142 28.7821 67.4521 30.1899C68.1213 30.894 68.6236 31.4855 68.9639 31.9067C69.1337 32.117 69.2628 32.2861 69.3525 32.4057C69.3973 32.4653 69.434 32.5128 69.459 32.5473L69.498 32.603C69.4993 32.6044 69.5011 32.6057 69.502 32.6069L69.5029 32.6098C69.4953 32.6162 69.3915 32.6895 68.0586 33.6225L69.749 34.1313L69.7471 34.1342C69.7466 34.136 69.7468 34.1388 69.7461 34.1411C69.7445 34.1461 69.7416 34.1531 69.7393 34.1606C69.7345 34.1758 69.7277 34.1963 69.7197 34.2211C69.7036 34.2716 69.6805 34.3429 69.6504 34.4311C69.59 34.608 69.5003 34.8586 69.3789 35.1713C69.1357 35.7978 68.7627 36.6781 68.2324 37.727C67.1726 39.8234 65.4766 42.6136 62.9189 45.4038C57.769 51.0219 49.1937 56.5639 35.5879 56.5639C21.9821 56.5639 13.4068 51.0218 8.25684 45.4038C5.69921 42.6136 4.00321 39.8234 2.94336 37.727C2.41309 36.6781 2.04004 35.7978 1.79688 35.1713C1.67545 34.8585 1.58476 34.608 1.52441 34.4311C1.49434 34.3429 1.4722 34.2716 1.45605 34.2211C1.44811 34.1963 1.44124 34.1758 1.43652 34.1606C1.4342 34.1531 1.43126 34.1461 1.42969 34.1411C1.429 34.1388 1.42913 34.136 1.42871 34.1342L1.42676 34.1313L3.11719 33.6225C1.78865 32.6563 1.69722 32.5888 1.69141 32.5834L1.69336 32.5815C1.69415 32.5802 1.69514 32.5782 1.69629 32.5766C1.69882 32.5731 1.70134 32.5681 1.70508 32.5629C1.71319 32.552 1.72462 32.5362 1.73828 32.518C1.7657 32.4815 1.80486 32.4307 1.85449 32.3666C1.95401 32.2383 2.09852 32.0566 2.28711 31.8295C2.66486 31.3748 3.22256 30.7366 3.95703 29.9789C5.42485 28.4649 7.60982 26.4641 10.5039 24.4887C16.2997 20.5329 24.9565 16.6681 36.3506 17.0356ZM27.293 21.2426C21.1202 22.4139 16.1813 24.8879 12.4951 27.4038C9.83091 29.2222 7.8247 31.0605 6.49121 32.436C5.89427 33.0517 5.43373 33.5739 5.11035 33.9575C5.3176 34.4861 5.63854 35.2357 6.09277 36.1342C7.04026 38.0083 8.56536 40.5144 10.8604 43.018C14.57 47.0647 20.3378 51.1608 29.1064 52.5434C22.9433 49.7911 18.6476 43.6092 18.6475 36.4233C18.6475 29.9654 22.1169 24.3184 27.293 21.2426ZM46.5078 22.0307C51.0064 25.2289 53.9413 30.4834 53.9414 36.4233C53.9413 43.2393 50.0762 49.1517 44.4189 52.0913C51.8837 50.403 56.948 46.6915 60.3154 43.018C62.6104 40.5144 64.1355 38.0083 65.083 36.1342C65.5405 35.2293 65.8603 34.4749 66.0674 33.9457C65.7857 33.6055 65.3964 33.1516 64.8926 32.6215C63.6939 31.3604 61.8657 29.6545 59.376 27.9243C56.1951 25.7138 51.9301 23.4585 46.5078 22.0307ZM36.2939 21.6C28.1074 21.6003 21.4708 28.2367 21.4707 36.4233C21.4709 44.6098 28.1074 51.2463 36.2939 51.2465C44.4806 51.2465 51.118 44.6099 51.1182 36.4233C51.1181 28.2366 44.4807 21.6 36.2939 21.6ZM36.2812 26.4106C37.5145 26.4106 38.6904 26.6559 39.7646 27.0971C38.46 27.9061 37.5909 29.3515 37.5908 30.9995C37.591 33.5332 39.645 35.5871 42.1787 35.5873C43.417 35.5873 44.5398 35.0956 45.3652 34.2983C45.4245 34.7195 45.457 35.1498 45.457 35.5873C45.457 40.6553 41.3491 44.7639 36.2812 44.7641C31.2132 44.7641 27.1045 40.6554 27.1045 35.5873C27.1046 30.5195 31.2133 26.4106 36.2812 26.4106ZM3.11719 33.6225L1.42676 34.1303L1.17578 33.2914L1.69043 32.5844L3.11719 33.6225ZM69.9941 33.311L69.749 34.1303L68.0586 33.6225L69.5049 32.6108L69.9941 33.311ZM62.5127 1.00043C63.0694 1.00064 63.5204 1.45152 63.5205 2.00825V2.05707C63.521 2.0926 63.5226 2.14695 63.5244 2.21723C63.5281 2.3585 63.5358 2.56556 63.5508 2.82075C63.581 3.33345 63.6412 4.03544 63.7607 4.79242C63.8809 5.553 64.0577 6.34831 64.3125 7.0561C64.5713 7.7746 64.8858 8.33446 65.2422 8.69086C66.081 9.52942 67.411 10.141 68.6299 10.5473C69.2229 10.7449 69.7583 10.8849 70.1445 10.9741C70.3367 11.0184 70.4916 11.0494 70.5957 11.0698C70.6471 11.0798 70.6865 11.0876 70.7119 11.0922C70.724 11.0944 70.7337 11.0961 70.7393 11.0971C70.7414 11.0975 70.7441 11.0969 70.7451 11.0971C71.2312 11.1782 71.5878 11.5994 71.5879 12.0922C71.5877 12.585 71.2312 13.0053 70.7451 13.0864V13.0873H70.7393C70.7337 13.0883 70.724 13.091 70.7119 13.0932C70.6865 13.0978 70.647 13.1056 70.5957 13.1157C70.4916 13.136 70.3367 13.167 70.1445 13.2114C69.7583 13.3005 69.2229 13.4405 68.6299 13.6381C67.4109 14.0445 66.081 14.6558 65.2422 15.4946C64.4687 16.2682 64.0036 17.6756 63.7568 19.0737C63.6387 19.743 63.5796 20.3575 63.5498 20.8041C63.535 21.0266 63.528 21.2069 63.5244 21.3286C63.5226 21.3888 63.5209 21.4354 63.5205 21.4653V21.5043C63.5203 22.0609 63.0693 22.5119 62.5127 22.5122C61.9559 22.5122 61.5042 22.0611 61.5039 21.5043V21.4653C61.5035 21.4354 61.5018 21.3888 61.5 21.3286C61.4964 21.2069 61.4894 21.0266 61.4746 20.8041C61.4448 20.3575 61.3857 19.743 61.2676 19.0737C61.0208 17.6756 60.5557 16.2682 59.7822 15.4946C59.4039 15.1163 58.8173 14.7572 58.083 14.434C57.3599 14.1159 56.553 13.8585 55.7861 13.6567C55.0219 13.4556 54.3142 13.3132 53.7979 13.2221C53.5406 13.1767 53.3313 13.1446 53.1885 13.1235C53.1171 13.1129 53.0616 13.104 53.0254 13.0991C53.0079 13.0967 52.9948 13.0953 52.9863 13.0942C52.9826 13.0937 52.9794 13.0935 52.9775 13.0932H52.9756C52.4712 13.0301 52.092 12.6006 52.0918 12.0922C52.0919 11.5839 52.4712 11.1554 52.9756 11.0922H52.9775C52.9794 11.092 52.9826 11.0908 52.9863 11.0903C52.9948 11.0892 53.0079 11.0878 53.0254 11.0854C53.0615 11.0805 53.1172 11.0725 53.1885 11.062C53.3313 11.0408 53.5406 11.0087 53.7979 10.9633C54.3142 10.8722 55.0219 10.7299 55.7861 10.5288C56.553 10.3269 57.36 10.0695 58.083 9.75141C58.8171 9.42839 59.4039 9.06899 59.7822 8.69086C60.1386 8.33448 60.4532 7.77457 60.7119 7.0561C60.9667 6.34832 61.1436 5.55299 61.2637 4.79242C61.3832 4.03544 61.4435 3.33345 61.4736 2.82075C61.4886 2.56556 61.4963 2.3585 61.5 2.21723C61.5018 2.14696 61.5035 2.0926 61.5039 2.05707V2.00825C61.504 1.45139 61.9558 1.00043 62.5127 1.00043ZM62.5127 7.9975C62.2106 8.76797 61.7941 9.53052 61.208 10.1166C60.5781 10.7464 59.7353 11.2272 58.8945 11.5971C58.4734 11.7824 58.0366 11.9471 57.6025 12.0922C58.0365 12.2373 58.4734 12.4021 58.8945 12.5873C59.7355 12.9574 60.578 13.4389 61.208 14.0688C61.7755 14.6363 62.1973 15.3521 62.5127 16.101C62.8281 15.3521 63.249 14.6363 63.8164 14.0688C64.7105 13.1747 65.9031 12.5373 66.9951 12.0922C65.9032 11.6472 64.7105 11.0106 63.8164 10.1166C63.2304 9.53059 62.8148 8.76788 62.5127 7.9975ZM46.8184 5.32953C47.2121 4.93596 47.8504 4.93607 48.2441 5.32953C48.6378 5.72335 48.6379 6.36254 48.2441 6.75629L46.8994 8.10004C46.5056 8.49358 45.8674 8.49361 45.4736 8.10004C45.0802 7.70628 45.0801 7.06798 45.4736 6.67426L46.8184 5.32953ZM49.5088 5.32953C49.9026 4.93604 50.5408 4.936 50.9346 5.32953L52.2793 6.67426C52.6729 7.068 52.6728 7.70627 52.2793 8.10004C51.8855 8.49363 51.2473 8.49363 50.8535 8.10004L49.5088 6.75629C49.115 6.36254 49.1151 5.72335 49.5088 5.32953ZM45.4746 1.29535C45.8684 0.901792 46.5067 0.90163 46.9004 1.29535L48.2441 2.64008C48.6378 3.0339 48.6379 3.67211 48.2441 4.06586C47.8504 4.45921 47.212 4.45937 46.8184 4.06586L45.4746 2.72114C45.0809 2.32738 45.081 1.68917 45.4746 1.29535ZM50.8525 1.29535C51.2463 0.901548 51.8855 0.901548 52.2793 1.29535C52.6727 1.6891 52.6727 2.32743 52.2793 2.72114L50.9346 4.06586C50.5409 4.45939 49.9026 4.45926 49.5088 4.06586C49.115 3.67211 49.1151 3.0339 49.5088 2.64008L50.8525 1.29535Z" fill="#151515"/>
</svg>